# xmcd
#
# Track frame offsets:
#	150
#	3635
#	14467
#	31950
#	58444
#	77522
#	87389
#	100714
#	106369
#	112207
#	125409
#	130287
#	163142
#	179319
#	181023
#	199380
#	206301
#	218557
#	239096
#	252587
#	259405
#
# Disc length: 3508 seconds
#
# Revision: 0
# Processed by: cddbd v1.4PL0 Copyright (c) Steve Scherf et al.
# Submitted via: EasyCDDAExtractor 4.6.9.1
#
DISCID=340db215
DTITLE=Mosom And Kohkom - Mosom And Kohkom Said! Stories and Songs
DYEAR=2000
DGENRE=Vocal
TTITLE0=Introduction
TTITLE1=Morning Song
TTITLE2=The Poor Hungry Bear
TTITLE3=Mamma's Lullaby
TTITLE4=Get Up and Boogie
TTITLE5=Old Macdonald
TTITLE6=The Gift
TTITLE7=Are You Sleeping?
TTITLE8=10 Little Indians
TTITLE9=Jingle Dress (straight)
TTITLE10=Kispin Ki Sakihin
TTITLE11=The Crow
TTITLE12=Joe Duquette Education Song
TTITLE13=Tetetapaluskeetoo
TTITLE14=Sacred Women Honour Song
TTITLE15=La La La Song
TTITLE16=Celebrate Life Song
TTITLE17=Nanaboozhoo
TTITLE18=Grandchild Song
TTITLE19=Bicycle Song
TTITLE20=May May Song
EXTD=
EXTT0=
EXTT1=
EXTT2=
EXTT3=
EXTT4=
EXTT5=
EXTT6=
EXTT7=
EXTT8=
EXTT9=
EXTT10=
EXTT11=
EXTT12=
EXTT13=
EXTT14=
EXTT15=
EXTT16=
EXTT17=
EXTT18=
EXTT19=
EXTT20=
PLAYORDER=
